<svg xmlns="http://www.w3.org/2000/svg" width="12" height="11" viewBox="0 0 12 11" fill="none">
  <path d="M1.00972 0.0888977C0.821039 0.0888977 0.666664 0.244898 0.666664 0.435564C0.666664 0.626231 0.821039 0.782231 1.00972 0.782231H2.34764L2.63923 1.87423C2.63923 1.89156 2.63923 1.9089 2.63923 1.9089L3.73701 6.05156C3.73701 6.05156 3.73701 6.05156 3.73701 6.0689L4.09722 7.45556C4.13153 7.61156 4.26875 7.71556 4.42312 7.71556H9.91201C10.1007 7.71556 10.2551 7.55956 10.2551 7.3689C10.2551 7.17823 10.1007 7.02223 9.91201 7.02223H4.69757L4.50889 6.29423L10.6324 5.98223C10.7868 5.98223 10.924 5.8609 10.9583 5.7049L11.6444 1.89156C11.6616 1.78756 11.6273 1.68356 11.5758 1.61423C11.5072 1.52756 11.4043 1.47556 11.3014 1.47556H3.23958L2.94798 0.348898C2.89653 0.192898 2.7593 0.0888977 2.60493 0.0888977H1.00972ZM5.12639 2.86223C5.31507 2.86223 5.46944 3.01823 5.46944 3.2089V4.59556C5.46944 4.78623 5.31507 4.94223 5.12639 4.94223C4.93771 4.94223 4.78333 4.78623 4.78333 4.59556V3.2089C4.78333 3.01823 4.93771 2.86223 5.12639 2.86223ZM7.18472 2.86223C7.3734 2.86223 7.52777 3.01823 7.52777 3.2089V4.59556C7.52777 4.78623 7.3734 4.94223 7.18472 4.94223C6.99604 4.94223 6.84166 4.78623 6.84166 4.59556V3.2089C6.84166 3.01823 6.99604 2.86223 7.18472 2.86223ZM9.24305 2.86223C9.43173 2.86223 9.58611 3.01823 9.58611 3.2089V4.59556C9.58611 4.78623 9.43173 4.94223 9.24305 4.94223C9.05437 4.94223 8.9 4.78623 8.9 4.59556V3.2089C8.9 3.01823 9.05437 2.86223 9.24305 2.86223ZM5.12639 8.4089C4.56034 8.4089 4.09722 8.8769 4.09722 9.4489C4.09722 10.0209 4.56034 10.4889 5.12639 10.4889C5.69243 10.4889 6.15555 10.0209 6.15555 9.4489C6.15555 8.8769 5.69243 8.4089 5.12639 8.4089ZM9.24305 8.4089C8.67701 8.4089 8.21389 8.8769 8.21389 9.4489C8.21389 10.0209 8.67701 10.4889 9.24305 10.4889C9.80909 10.4889 10.2722 10.0209 10.2722 9.4489C10.2722 8.8769 9.80909 8.4089 9.24305 8.4089Z" fill="black"/>
</svg>